<svg width="63" height="63" viewBox="0 0 63 63" fill="none" xmlns="http://www.w3.org/2000/svg">
<g clip-path="url(#clip0_3901_325)">
<circle cx="31.5" cy="31.5" r="30.5" stroke="#EBEBEB" stroke-width="2"/>
<path d="M26.944 41.144C25.648 41.144 24.496 40.808 23.488 40.136C22.48 39.448 21.688 38.472 21.112 37.208C20.536 35.928 20.248 34.392 20.248 32.6C20.248 30.808 20.536 29.28 21.112 28.016C21.688 26.736 22.48 25.76 23.488 25.088C24.496 24.4 25.648 24.056 26.944 24.056C28.24 24.056 29.392 24.4 30.4 25.088C31.408 25.76 32.2 26.736 32.776 28.016C33.368 29.28 33.664 30.808 33.664 32.6C33.664 34.392 33.368 35.928 32.776 37.208C32.2 38.472 31.408 39.448 30.4 40.136C29.392 40.808 28.24 41.144 26.944 41.144ZM26.944 39.56C27.936 39.56 28.8 39.296 29.536 38.768C30.272 38.224 30.848 37.44 31.264 36.416C31.68 35.376 31.888 34.104 31.888 32.6C31.888 31.096 31.68 29.832 31.264 28.808C30.848 27.768 30.272 26.984 29.536 26.456C28.8 25.912 27.936 25.64 26.944 25.64C25.984 25.64 25.128 25.912 24.376 26.456C23.624 26.984 23.04 27.768 22.624 28.808C22.208 29.832 22 31.096 22 32.6C22 34.104 22.208 35.376 22.624 36.416C23.04 37.44 23.624 38.224 24.376 38.768C25.128 39.296 25.984 39.56 26.944 39.56ZM39.0666 41V24.92L39.8346 25.736H35.1066V24.2H40.7946V41H39.0666Z" fill="#EBEBEB"/>
</g>
<defs>
<clipPath id="clip0_3901_325">
<rect width="63" height="63" fill="white"/>
</clipPath>
</defs>
</svg>
