<svg width="34" height="34" viewBox="0 0 34 34" fill="none" xmlns="http://www.w3.org/2000/svg">
<path d="M16.3345 9.09501L17.0102 10.4983L17.686 9.09501C18.7351 6.91641 20.9545 5.75195 23.6278 5.75195C27.2743 5.75195 30.2397 8.85108 30.2499 12.6595C30.2544 14.3563 29.4742 16.2474 28.1968 18.1819C26.9279 20.1033 25.2208 21.9895 23.4917 23.6592C21.7658 25.3259 20.0362 26.7595 18.7366 27.7773C18.0874 28.2857 17.5469 28.6892 17.1696 28.965C17.1127 29.0066 17.0595 29.0453 17.0103 29.081C16.961 29.0453 16.9078 29.0066 16.8509 28.965C16.4736 28.6891 15.9331 28.2854 15.2837 27.7767C13.9838 26.7583 12.2536 25.3234 10.5264 23.6542C8.79612 21.9819 7.08701 20.0919 5.81523 18.1645C4.53506 16.2244 3.75016 14.3245 3.75016 12.6158C3.75016 8.82053 6.74708 5.75195 10.4049 5.75195C13.0767 5.75195 15.2849 6.91532 16.3345 9.09501Z" fill="#E12317" stroke="#E12317" stroke-width="1.5"/>
</svg>
