<svg width="46" height="55" viewBox="0 0 46 55" fill="none" xmlns="http://www.w3.org/2000/svg">
<path d="M45.7447 18.8461C45.7608 18.7002 45.7399 18.5527 45.684 18.417C45.628 18.2814 45.5389 18.162 45.4248 18.0698C45.3106 17.9776 45.1751 17.9156 45.0307 17.8895C44.8863 17.8634 44.7377 17.874 44.5985 17.9203L38.5103 19.9495C40.3868 16.3347 41.3692 12.3227 41.375 8.24983V6.49984C41.375 6.34496 41.3338 6.19287 41.2558 6.0591C41.1778 5.92533 41.0656 5.81466 40.9308 5.73841C40.796 5.66216 40.6434 5.62305 40.4885 5.62508C40.3337 5.62711 40.1821 5.6702 40.0494 5.74996L35.3375 8.57971C35.8597 6.17135 36.1237 3.71417 36.125 1.24984C36.1251 1.1111 36.0923 0.974321 36.0291 0.850785C35.966 0.727249 35.8744 0.620496 35.7619 0.539336C35.6497 0.45802 35.5196 0.40478 35.3826 0.384075C35.2456 0.36337 35.1056 0.375805 34.9744 0.420336C33.2701 0.992399 31.6978 1.90055 30.3507 3.09104C29.0036 4.28153 27.909 5.73017 27.1317 7.35121C26.458 6.29788 25.6743 5.31909 24.7937 4.43134L23.6186 3.25621C23.4545 3.09217 23.232 3.00002 23 3.00002C22.768 3.00002 22.5455 3.09217 22.3814 3.25621C21.3633 4.28096 20.4497 5.40445 19.654 6.61009C18.6006 4.49466 17.3067 2.50782 15.7979 0.688961C15.6511 0.512826 15.4411 0.401314 15.213 0.378406C14.9849 0.355497 14.757 0.423023 14.5781 0.566461C13.1075 1.73728 11.9206 3.22541 11.1062 4.91957C10.2918 6.61373 9.87089 8.47009 9.875 10.3498V11.1872C9.875 11.2616 9.88725 11.3342 9.889 11.4086C8.08265 10.4808 6.08083 9.99779 4.05013 9.99983H2C1.85701 9.99978 1.71619 10.0348 1.58985 10.1017C1.46352 10.1687 1.35552 10.2656 1.27531 10.384C1.1951 10.5024 1.14512 10.6386 1.12975 10.7808C1.11438 10.9229 1.13408 11.0667 1.18713 11.1995L1.6045 12.2416C3.00578 15.7535 5.44038 18.7571 8.58612 20.8551C8.76938 21.5764 9.0117 22.2814 9.31062 22.963C6.70761 21.9189 3.92961 21.3799 1.125 21.3748C0.892936 21.3748 0.670376 21.467 0.506282 21.6311C0.342187 21.7952 0.25 22.0178 0.25 22.2498C0.252397 24.5807 0.875239 26.8688 2.05455 28.8793C3.23385 30.8898 4.92711 32.55 6.96037 33.6896C6.7622 33.7511 6.59403 33.8842 6.48858 34.0629C6.38312 34.2417 6.34794 34.4532 6.38987 34.6565L9.2625 50.4633C9.47419 51.6316 10.0896 52.6883 11.0012 53.449C11.9128 54.2096 13.0627 54.6258 14.25 54.6248H33.5C34.6872 54.6255 35.8369 54.2091 36.7484 53.4486C37.66 52.688 38.2755 51.6314 38.4875 50.4633L41.3619 34.6565C41.3848 34.5303 41.3798 34.4006 41.347 34.2766C41.3143 34.1526 41.2547 34.0373 41.1725 33.9388C41.0903 33.8404 40.9874 33.7613 40.8712 33.707C40.755 33.6527 40.6283 33.6247 40.5 33.6248H36.5625C37.1367 32.2685 37.1496 30.7399 36.5984 29.3741C39.0082 28.7489 41.172 27.4084 42.8048 25.529C44.4375 23.6496 45.4625 21.3196 45.7447 18.8461ZM35.25 31.4522C35.2499 32.01 35.1307 32.5613 34.9002 33.0692C34.6698 33.5772 34.3335 34.03 33.9139 34.3975L29.3971 38.3498C29.1045 38.5984 28.7468 38.7581 28.3664 38.8101C30.623 35.1953 32.0242 31.1129 32.4631 26.8742C33.0613 27.1266 33.5642 27.5619 33.8999 28.1176L34.6917 29.4388C35.057 30.0469 35.2499 30.7429 35.25 31.4522ZM19.0949 33.6248C20.1235 32.923 21.0096 32.0322 21.7059 30.9998H23.518C23.2053 31.8408 23.0346 32.7279 23.0131 33.6248H19.0949ZM11.9251 16.9998C13.3795 16.9997 14.8197 17.2861 16.1634 17.8426C17.5071 18.3991 18.7281 19.2149 19.7565 20.2433C20.7849 21.2718 21.6007 22.4927 22.1572 23.8364C22.7137 25.1801 23.0001 26.6203 23 28.0747V28.8395C17.5437 26.5462 13.0914 22.3712 10.4525 17.0733L10.4157 16.9998H11.9251ZM23.875 18.0901V23.4276C22.7523 20.5314 20.6153 18.1419 17.862 16.7041C18.2606 12.647 19.8886 8.80839 22.5284 5.70184C23.4225 9.77063 23.874 13.9242 23.875 18.0901ZM29.8049 15.5806L30.1934 15.0967C31.609 13.325 33.3301 11.8209 35.2754 10.6552L38.7911 8.54558C36.19 15.4275 31.6465 21.406 25.7125 25.7551C26.0563 22.0373 27.4787 18.501 29.8049 15.5806ZM24.75 28.3748C24.9228 28.3749 25.0918 28.3237 25.2356 28.2278C25.2846 28.1946 25.3319 28.1596 25.3809 28.1272C25.1566 28.3513 24.9459 28.5885 24.75 28.8377V28.3748ZM19.451 29.0285C17.2288 28.6014 15.1767 27.5429 13.5405 25.9797C11.9042 24.4166 10.7531 22.415 10.225 20.2146C12.5335 23.8627 15.7013 26.889 19.451 29.0285ZM27.4082 28.6785L29.4776 27.1997C29.8495 26.9358 30.2754 26.7579 30.7245 26.6791C30.3114 30.7247 28.9634 34.6189 26.787 38.0541L26.6015 38.3455C26.491 38.2521 26.3912 38.1467 26.304 38.0313L26.0231 37.656C25.5155 36.979 25.1484 36.2075 24.9432 35.3867C24.738 34.5659 24.699 33.7123 24.8283 32.8762C24.9577 32.0401 25.2529 31.2383 25.6965 30.5178C26.1402 29.7974 26.7233 29.1729 27.4117 28.6811L27.4082 28.6785ZM31.2644 24.8748C30.366 24.8778 29.4866 25.1338 28.7269 25.6133C33.2587 21.8342 36.8896 17.091 39.3546 11.7297C38.9595 14.3999 38.1111 16.9831 36.846 19.3676C35.6068 21.6909 33.723 23.607 31.421 24.8853C31.3685 24.8836 31.3169 24.8748 31.2644 24.8748ZM28.5519 8.41258C29.708 5.81765 31.7687 3.732 34.3496 2.54484C34.2488 5.0427 33.8637 7.52095 33.2016 9.93158C31.8658 10.8602 30.6443 11.9434 29.5625 13.1586C29.2632 11.7941 28.8045 10.4696 28.1957 9.21233L28.5519 8.41258ZM28.1056 14.941C27.1149 16.2485 26.2822 17.6685 25.625 19.1716V18.0901C25.6228 14.2783 25.2545 10.4756 24.5251 6.73433C26.4718 9.07567 27.7137 11.9215 28.1065 14.941H28.1056ZM16.1846 15.991C15.8722 15.8807 15.5564 15.7818 15.2352 15.697C14.8536 11.5838 14.9885 7.43907 15.6369 3.35946C16.7865 4.94161 17.773 6.63609 18.5812 8.41696C17.3252 10.7722 16.5131 13.3384 16.1855 15.9875L16.1846 15.991ZM11.625 10.3498C11.6231 8.01251 12.3855 5.73866 13.7959 3.87484C13.2511 7.67297 13.1355 11.5203 13.4511 15.3443C13.0749 15.3006 12.6951 15.2761 12.3136 15.2647L11.9479 13.8008C11.7344 12.9469 11.626 12.0701 11.625 11.1898V10.3498ZM3.29412 11.7498H4.05013C6.21114 11.7494 8.32463 12.3842 10.1279 13.5751C10.1699 13.793 10.1952 14.0126 10.2495 14.2287L10.505 15.2498H9C8.76793 15.2498 8.54538 15.342 8.38128 15.5061C8.21719 15.6702 8.125 15.8928 8.125 16.1248V17.4198C8.125 17.7375 8.153 18.0516 8.17575 18.3666C6.02924 16.5959 4.35253 14.3233 3.29412 11.7498ZM12.6829 27.569C13.1864 28.011 13.7219 28.4152 14.285 28.7782C10.2531 27.9083 6.51508 26.0091 3.435 23.2657C5.94133 23.5533 8.3723 24.3046 10.6039 25.4812L10.9119 25.6448C11.4387 26.3419 12.0318 26.9863 12.6829 27.569ZM2.24325 24.5432C6.94422 28.7487 13.0305 31.0737 19.3381 31.0733C19.3652 31.0733 19.3924 31.0733 19.4186 31.0733C18.6594 31.875 17.7455 32.5145 16.7321 32.953C15.7188 33.3916 14.627 33.6201 13.5229 33.6248H13.375C10.7585 33.6208 8.22318 32.7156 6.19576 31.0616C4.16834 29.4076 2.77255 27.1056 2.24325 24.5432ZM36.7646 50.1501C36.6257 50.9147 36.2228 51.6062 35.6262 52.1042C35.0296 52.6021 34.2771 52.8748 33.5 52.8748H14.25C13.4731 52.875 12.7208 52.6024 12.1243 52.1046C11.5278 51.6068 11.125 50.9154 10.9862 50.151L8.3 35.3748H23.154C23.3857 36.5796 23.8871 37.7163 24.6205 38.6998L24.9014 39.0743C25.221 39.5009 25.6254 39.8569 26.089 40.1199C26.5527 40.383 27.0657 40.5474 27.5959 40.6029C28.126 40.6585 28.662 40.6039 29.1701 40.4426C29.6782 40.2814 30.1475 40.0169 30.5486 39.6658L35.0654 35.7143C35.1887 35.6067 35.3025 35.4903 35.4154 35.374H39.45L36.7646 50.1501ZM36.1005 27.6985L35.7426 27.786L35.4005 27.2146C34.9778 26.5148 34.3844 25.9337 33.6759 25.5258C34.9571 24.6223 36.0923 23.5278 37.042 22.2805L43.7541 20.044C43.2862 21.8909 42.328 23.5772 40.9808 24.9246C39.6336 26.2719 37.9474 27.2303 36.1005 27.6985Z" fill="#AE8646"/>
</svg>
